<svg width="227" height="163" viewBox="0 0 227 163" fill="none" xmlns="http://www.w3.org/2000/svg">
<path fill-rule="evenodd" clip-rule="evenodd" d="M62.3103 0.950624C52.943 3.53483 45.4168 9.08391 41.7168 16.1346C38.6317 22.0133 38.2315 24.4422 38.2315 37.2959C38.2315 44.9994 38.3743 48.5097 38.6875 48.5097C38.9386 48.5097 40.0313 47.5737 41.1163 46.4302C42.2009 45.2866 44.5845 42.9547 46.4132 41.2487L49.7382 38.1468V32.5953C49.7382 26.6343 50.2291 24.2216 52.1725 20.6305C53.3692 18.4194 56.2399 15.4268 58.6597 13.8685C61.2695 12.1874 66.3039 10.4537 69.129 10.2631C70.5354 10.1685 81.9461 9.89514 94.4863 9.65629C117.556 9.21621 152.531 9.64955 160.969 10.4794C167.413 11.1132 172.235 13.2664 175.925 17.157C180.02 21.4761 180.999 24.4878 180.999 32.7676C180.999 39.4888 180.482 38.4842 186.164 42.8046C189.03 44.984 191.5 46.0384 192.205 45.3832C192.41 45.1927 192.501 40.0699 192.409 33.9987C192.219 21.5498 191.947 20.167 188.608 14.69C186.209 10.7555 183.954 8.42201 180.133 5.9194C176.298 3.40689 173.292 2.04349 169.181 0.950624C166.402 0.211883 164.497 0.185739 115.583 0.214655C68.243 0.243175 64.6972 0.291897 62.3103 0.950624ZM107.698 15.1016C103.588 15.6926 98.9726 16.5933 96.6171 17.2635C91.5372 18.7093 83.8545 21.8901 80.0309 24.1305C70.3423 29.8079 66.5183 32.5612 54.686 42.38C47.4603 48.3762 39.9362 55.8413 39.9362 57.0142C39.9362 57.4709 44.7272 61.8503 51.451 67.5396C66.765 80.4974 77.1138 87.1128 89.3722 91.7814C97.1434 94.7411 101.66 95.7777 111.426 96.8436C120.967 97.8846 135.897 94.8231 146.289 89.6939C159.906 82.9727 166.637 78.1556 182.484 63.7884L190.15 56.8399L189.371 55.4959C188.943 54.7571 185.206 51.0543 181.067 47.2679C170.004 37.1478 169.32 36.5746 159.633 29.312C158.225 28.2563 152.492 24.7551 149.298 23C142.473 19.2496 131.636 15.9354 123.892 15.2299C119.962 14.8718 109.852 14.7918 107.698 15.1016ZM107.911 24.3895C104.44 24.8534 95.0369 27.6527 90.8638 29.4637C86.0762 31.542 76.6437 37.1719 72.1178 40.6533C71.646 41.0162 70.3969 41.9712 69.3421 42.7757C65.7303 45.5302 59.1135 51.3589 56.7125 53.9011L54.3123 56.4422L57.8849 59.6352C72.4093 72.6161 85.9909 80.9668 98.1087 84.3674C100.218 84.9592 102.762 85.6884 103.762 85.9871C107.036 86.9663 111.578 87.4111 116.606 87.2447C120.664 87.1108 122.577 86.815 127.302 85.5902C130.466 84.7699 133.822 83.9012 134.76 83.66C139.1 82.5425 149.312 77.0659 157.347 71.5462C161.888 68.4264 163.134 67.4152 170.705 60.6964L175.539 56.4061L173.049 53.7657C170.577 51.145 165.032 46.0729 160.554 42.3364C159.27 41.2657 157.952 40.1574 157.625 39.8738C156.483 38.8863 150.725 35.027 147.654 33.1918C140.198 28.7352 129.421 24.9837 122.263 24.3527C116.993 23.8881 111.556 23.9023 107.911 24.3895ZM38.0743 66.6127C37.712 66.9497 37.7934 86.6692 38.2098 99.4096C38.5878 110.968 38.9036 112.482 42.1544 118.319C44.8768 123.208 50.5466 128.242 56.5569 131.108C58.3656 131.97 63.7401 133.3 63.9655 132.941C64.0546 132.799 64.2655 130.233 64.4343 127.239C64.7211 122.154 64.6892 121.779 63.9519 121.546C59.1481 120.022 55.6019 117.474 52.8884 113.595C49.866 109.275 49.849 109.159 49.5775 90.6952L49.3329 74.0587L46.8717 71.9363C43.583 69.1002 38.6257 66.1001 38.0743 66.6127ZM182.629 89.1995L181.064 89.3532L180.925 99.3549L180.786 109.357L179.117 112.495C177.191 116.115 174.369 118.901 171.325 120.189C170.2 120.664 169.019 121.178 168.701 121.33C168.251 121.546 168.137 122.827 168.19 127.116C168.226 130.146 168.347 132.76 168.457 132.926C168.568 133.093 169.757 132.877 171.1 132.448C179.267 129.836 185.311 125.09 188.826 118.528C192.091 112.431 192.506 110.2 192.506 98.741V88.9127L188.351 88.9793C186.066 89.0161 183.491 89.1152 182.629 89.1995Z" fill="black"/>
<path d="M66.6992 113.104C66.6992 111.032 68.3787 109.353 70.4503 109.353C72.522 109.353 74.2015 111.032 74.2015 113.104V147.441C74.2015 149.512 72.522 151.192 70.4503 151.192C68.3787 151.192 66.6992 149.512 66.6992 147.441V113.104Z" fill="#3D4648"/>
<path d="M159.034 113.104C159.034 111.032 160.714 109.353 162.786 109.353C164.857 109.353 166.537 111.032 166.537 113.104V147.441C166.537 149.512 164.857 151.192 162.786 151.192C160.714 151.192 159.034 149.512 159.034 147.441V113.104Z" fill="#3D4648"/>
<path d="M78.2411 105.221C78.2411 103.149 79.9205 101.47 81.9922 101.47C84.0639 101.47 85.7433 103.149 85.7433 105.221V155.323C85.7433 157.395 84.0639 159.074 81.9922 159.074C79.9205 159.074 78.2411 157.395 78.2411 155.323V105.221Z" fill="#3D4648"/>
<path d="M147.492 105.221C147.492 103.149 149.172 101.47 151.244 101.47C153.315 101.47 154.995 103.149 154.995 105.221V155.323C154.995 157.395 153.315 159.074 151.244 159.074C149.172 159.074 147.492 157.395 147.492 155.323V105.221Z" fill="#3D4648"/>
<path d="M112.867 108.253C112.867 106.181 114.546 104.502 116.618 104.502C118.69 104.502 120.369 106.181 120.369 108.253V158.355C120.369 160.427 118.69 162.106 116.618 162.106C114.546 162.106 112.867 160.427 112.867 158.355V108.253Z" fill="#3D4648"/>
<path d="M89.783 119.167C89.783 117.096 91.4625 115.416 93.5341 115.416C95.6058 115.416 97.2853 117.096 97.2853 119.167V147.441C97.2853 149.512 95.6058 151.192 93.5341 151.192C91.4625 151.192 89.783 149.512 89.783 147.441V119.167Z" fill="#3D4648"/>
<path d="M208.588 47.7086C210.256 47.7347 211.589 49.108 211.566 50.776C211.542 52.4441 210.171 53.7752 208.503 53.7491L198.412 53.5915C196.744 53.5654 195.411 52.1921 195.434 50.524C195.458 48.856 196.829 47.5249 198.497 47.551L208.588 47.7086Z" fill="#18AAF1"/>
<path d="M31.9973 47.7086C33.6653 47.7347 34.9984 49.108 34.9748 50.776C34.9512 52.4441 33.5799 53.7752 31.9119 53.7491L21.8205 53.5915C20.1525 53.5654 18.8194 52.1921 18.8431 50.524C18.8667 48.856 20.238 47.5249 21.906 47.551L31.9973 47.7086Z" fill="#18AAF1"/>
<path d="M205.703 66.5058C207.371 66.5319 208.704 67.9052 208.68 69.5733C208.657 71.2413 207.285 72.5724 205.617 72.5463L195.526 72.3887C193.858 72.3626 192.525 70.9893 192.549 69.3212C192.572 67.6532 193.944 66.3221 195.612 66.3482L205.703 66.5058Z" fill="#18AAF1"/>
<path d="M15.8387 66.5058C17.5067 66.5319 18.8398 67.9052 18.8161 69.5733C18.7925 71.2413 17.4212 72.5724 15.7532 72.5463L5.66187 72.3887C3.99387 72.3626 2.66082 70.9893 2.68442 69.3212C2.70803 67.6532 4.07934 66.3221 5.74734 66.3482L15.8387 66.5058Z" fill="#18AAF1"/>
<path d="M223.016 75.6013C224.684 75.6273 226.017 77.0006 225.993 78.6687C225.97 80.3367 224.598 81.6678 222.93 81.6418L212.839 81.4841C211.171 81.458 209.838 80.0847 209.861 78.4167C209.885 76.7486 211.256 75.4175 212.924 75.4436L223.016 75.6013Z" fill="#18AAF1"/>
<path d="M223.824 47.6491C225.492 47.6752 226.825 49.0485 226.801 50.7165C226.777 52.3846 225.406 53.7157 223.738 53.6896L217.456 53.5915C215.788 53.5654 214.455 52.1921 214.478 50.524C214.502 48.856 215.873 47.5249 217.541 47.551L223.824 47.6491Z" fill="#18AAF1"/>
<path d="M12.6068 47.6491C14.2748 47.6752 15.6079 49.0485 15.5843 50.7165C15.5607 52.3846 14.1894 53.7157 12.5214 53.6896L6.23895 53.5915C4.57095 53.5654 3.23791 52.1921 3.26151 50.524C3.28512 48.856 4.65643 47.5249 6.32444 47.551L12.6068 47.6491Z" fill="#18AAF1"/>
<path d="M203.832 75.6532C205.5 75.6792 206.833 77.0526 206.81 78.7206C206.786 80.3886 205.415 81.7197 203.747 81.6937L190.332 81.4841C188.664 81.458 187.331 80.0847 187.355 78.4167C187.378 76.7486 188.75 75.4175 190.418 75.4436L203.832 75.6532Z" fill="#18AAF1"/>
<path d="M17.4305 77.4722C19.0985 77.4983 20.4315 78.8716 20.4079 80.5397C20.3843 82.2077 19.013 83.5388 17.345 83.5127L3.93056 83.3032C2.26256 83.2771 0.92951 81.9038 0.953114 80.2357C0.976718 78.5677 2.34803 77.2366 4.01604 77.2627L17.4305 77.4722Z" fill="#18AAF1"/>
<path d="M220.938 66.4463C222.606 66.4724 223.939 67.8457 223.916 69.5137C223.892 71.1818 222.521 72.5129 220.853 72.4868L214.57 72.3887C212.902 72.3626 211.569 70.9893 211.593 69.3212C211.616 67.6532 212.988 66.3221 214.656 66.3482L220.938 66.4463Z" fill="#18AAF1"/>
<path d="M32.2281 67.0527C33.8961 67.0787 35.2291 68.4521 35.2055 70.1201C35.1819 71.7881 33.8106 73.1192 32.1426 73.0932L25.8602 72.995C24.1922 72.969 22.8591 71.5956 22.8827 69.9276C22.9063 68.2596 24.2777 66.9285 25.9457 66.9545L32.2281 67.0527Z" fill="#18AAF1"/>
<path d="M222.846 57.4528C224.514 57.4789 225.847 58.8522 225.823 60.5202C225.799 62.1883 224.428 63.5194 222.76 63.4933L209.953 63.2932C208.285 63.2672 206.952 61.8938 206.976 60.2258C207 58.5578 208.371 57.2267 210.039 57.2527L222.846 57.4528Z" fill="#18AAF1"/>
<path d="M34.7127 56.8465C36.3807 56.8725 37.7137 58.2459 37.6901 59.9139C37.6665 61.5819 36.2952 62.913 34.6272 62.887L21.8205 62.6869C20.1525 62.6608 18.8194 61.2875 18.843 59.6195C18.8667 57.9514 20.238 56.6203 21.906 56.6464L34.7127 56.8465Z" fill="#18AAF1"/>
<path d="M201.231 57.2954C202.899 57.3215 204.232 58.6948 204.208 60.3629C204.185 62.0309 202.814 63.362 201.146 63.3359L198.412 63.2932C196.744 63.2672 195.411 61.8938 195.434 60.2258C195.458 58.5578 196.829 57.2267 198.497 57.2527L201.231 57.2954Z" fill="#18AAF1"/>
<path d="M30.4109 76.699C32.0789 76.7251 33.412 78.0984 33.3884 79.7665C33.3647 81.4345 31.9934 82.7656 30.3254 82.7395L27.5914 82.6968C25.9234 82.6708 24.5904 81.2974 24.614 79.6294C24.6376 77.9613 26.0089 76.6303 27.6769 76.6563L30.4109 76.699Z" fill="#18AAF1"/>
<path d="M9.05843 57.2954C10.7264 57.3215 12.0595 58.6948 12.0359 60.3629C12.0123 62.0309 10.641 63.362 8.97295 63.3359L6.23897 63.2932C4.57097 63.2672 3.23792 61.8938 3.26152 60.2258C3.28513 58.5578 4.65644 57.2267 6.32444 57.2527L9.05843 57.2954Z" fill="#18AAF1"/>
<path d="M124.409 119.167C124.409 117.096 126.088 115.416 128.16 115.416C130.232 115.416 131.911 117.096 131.911 119.167V147.441C131.911 149.512 130.232 151.192 128.16 151.192C126.088 151.192 124.409 149.512 124.409 147.441V119.167Z" fill="#3D4648"/>
<path d="M101.325 122.806C101.325 120.734 103.004 119.054 105.076 119.054C107.148 119.054 108.827 120.734 108.827 122.806V152.291C108.827 154.363 107.148 156.043 105.076 156.043C103.004 156.043 101.325 154.363 101.325 152.291V122.806Z" fill="#3D4648"/>
<path d="M135.951 122.806C135.951 120.734 137.63 119.054 139.702 119.054C141.773 119.054 143.453 120.734 143.453 122.806V152.291C143.453 154.363 141.773 156.043 139.702 156.043C137.63 156.043 135.951 154.363 135.951 152.291V122.806Z" fill="#3D4648"/>
<ellipse cx="116.907" cy="56.9024" rx="24.8151" ry="24.5577" fill="#9D2323"/>
<ellipse cx="117.484" cy="56.9024" rx="16.1587" ry="15.4622" fill="#152834"/>
<ellipse cx="112.578" cy="52.961" rx="6.0595" ry="6.06362" fill="#F5F5F5"/>
</svg>
