<svg width="286" height="287" viewBox="0 0 286 287" fill="none" xmlns="http://www.w3.org/2000/svg">
<g filter="url(#filter0_d_75_2)">
<circle cx="143" cy="141" r="137" fill="white"/>
<circle cx="143" cy="141" r="137" stroke="black" stroke-width="6.46226"/>
</g>
<path fill-rule="evenodd" clip-rule="evenodd" d="M91.3103 71.9506C81.943 74.5348 74.4168 80.0839 70.7168 87.1346C67.6317 93.0133 67.2315 95.4422 67.2315 108.296C67.2315 115.999 67.3743 119.51 67.6875 119.51C67.9386 119.51 69.0313 118.574 70.1163 117.43C71.2009 116.287 73.5845 113.955 75.4132 112.249L78.7382 109.147V103.595C78.7382 97.6343 79.2291 95.2216 81.1725 91.6305C82.3692 89.4194 85.2399 86.4268 87.6597 84.8685C90.2695 83.1874 95.3039 81.4537 98.129 81.2631C99.5354 81.1685 110.946 80.8951 123.486 80.6563C146.556 80.2162 181.531 80.6496 189.969 81.4794C196.413 82.1132 201.235 84.2664 204.925 88.157C209.02 92.4761 209.999 95.4878 209.999 103.768C209.999 110.489 209.482 109.484 215.164 113.805C218.03 115.984 220.5 117.038 221.205 116.383C221.41 116.193 221.501 111.07 221.409 104.999C221.219 92.5498 220.947 91.167 217.608 85.69C215.209 81.7555 212.954 79.422 209.133 76.9194C205.298 74.4069 202.292 73.0435 198.181 71.9506C195.402 71.2119 193.497 71.1857 144.583 71.2147C97.243 71.2432 93.6972 71.2919 91.3103 71.9506ZM136.698 86.1016C132.588 86.6926 127.973 87.5933 125.617 88.2635C120.537 89.7093 112.855 92.8901 109.031 95.1305C99.3423 100.808 95.5183 103.561 83.686 113.38C76.4603 119.376 68.9362 126.841 68.9362 128.014C68.9362 128.471 73.7272 132.85 80.451 138.54C95.765 151.497 106.114 158.113 118.372 162.781C126.143 165.741 130.66 166.778 140.426 167.844C149.967 168.885 164.897 165.823 175.289 160.694C188.906 153.973 195.637 149.156 211.484 134.788L219.15 127.84L218.371 126.496C217.943 125.757 214.206 122.054 210.067 118.268C199.004 108.148 198.32 107.575 188.633 100.312C187.225 99.2563 181.492 95.7551 178.298 94C171.473 90.2496 160.636 86.9354 152.892 86.2299C148.962 85.8718 138.852 85.7918 136.698 86.1016ZM136.911 95.3895C133.44 95.8534 124.037 98.6527 119.864 100.464C115.076 102.542 105.644 108.172 101.118 111.653C100.646 112.016 99.3969 112.971 98.3421 113.776C94.7303 116.53 88.1135 122.359 85.7125 124.901L83.3123 127.442L86.8849 130.635C101.409 143.616 114.991 151.967 127.109 155.367C129.218 155.959 131.762 156.688 132.762 156.987C136.036 157.966 140.578 158.411 145.606 158.245C149.664 158.111 151.577 157.815 156.302 156.59C159.466 155.77 162.822 154.901 163.76 154.66C168.1 153.543 178.312 148.066 186.347 142.546C190.888 139.426 192.134 138.415 199.705 131.696L204.539 127.406L202.049 124.766C199.577 122.145 194.032 117.073 189.554 113.336C188.27 112.266 186.952 111.157 186.625 110.874C185.483 109.886 179.725 106.027 176.654 104.192C169.198 99.7352 158.421 95.9837 151.263 95.3527C145.993 94.8881 140.556 94.9023 136.911 95.3895ZM67.0743 137.613C66.712 137.95 66.7934 157.669 67.2098 170.41C67.5878 181.968 67.9036 183.482 71.1544 189.319C73.8768 194.208 79.5466 199.242 85.5569 202.108C87.3656 202.97 92.7401 204.3 92.9655 203.941C93.0546 203.799 93.2655 201.233 93.4343 198.239C93.7211 193.154 93.6892 192.779 92.9519 192.546C88.1481 191.022 84.6019 188.474 81.8884 184.595C78.866 180.275 78.849 180.159 78.5775 161.695L78.3329 145.059L75.8717 142.936C72.583 140.1 67.6257 137.1 67.0743 137.613ZM211.629 160.2L210.064 160.353L209.925 170.355L209.786 180.357L208.117 183.495C206.191 187.115 203.369 189.901 200.325 191.189C199.2 191.664 198.019 192.178 197.701 192.33C197.251 192.546 197.137 193.827 197.19 198.116C197.226 201.146 197.347 203.76 197.457 203.926C197.568 204.093 198.757 203.877 200.1 203.448C208.267 200.836 214.311 196.09 217.826 189.528C221.091 183.431 221.506 181.2 221.506 169.741V159.913L217.351 159.979C215.066 160.016 212.491 160.115 211.629 160.2Z" fill="black"/>
<path d="M95.6992 184.104C95.6992 182.032 97.3786 180.353 99.4503 180.353C101.522 180.353 103.201 182.032 103.201 184.104V218.441C103.201 220.512 101.522 222.192 99.4503 222.192C97.3786 222.192 95.6992 220.512 95.6992 218.441V184.104Z" fill="#3D4648"/>
<path d="M188.034 184.104C188.034 182.032 189.714 180.353 191.785 180.353C193.857 180.353 195.537 182.032 195.537 184.104V218.441C195.537 220.512 193.857 222.192 191.785 222.192C189.714 222.192 188.034 220.512 188.034 218.441V184.104Z" fill="#3D4648"/>
<path d="M107.241 176.221C107.241 174.149 108.92 172.47 110.992 172.47C113.064 172.47 114.743 174.149 114.743 176.221V226.323C114.743 228.395 113.064 230.074 110.992 230.074C108.92 230.074 107.241 228.395 107.241 226.323V176.221Z" fill="#3D4648"/>
<path d="M176.492 176.221C176.492 174.149 178.172 172.47 180.244 172.47C182.315 172.47 183.995 174.149 183.995 176.221V226.323C183.995 228.395 182.315 230.074 180.244 230.074C178.172 230.074 176.492 228.395 176.492 226.323V176.221Z" fill="#3D4648"/>
<path d="M141.867 179.253C141.867 177.181 143.546 175.502 145.618 175.502C147.69 175.502 149.369 177.181 149.369 179.253V229.355C149.369 231.427 147.69 233.106 145.618 233.106C143.546 233.106 141.867 231.427 141.867 229.355V179.253Z" fill="#3D4648"/>
<path d="M118.783 190.167C118.783 188.096 120.462 186.416 122.534 186.416C124.606 186.416 126.285 188.096 126.285 190.167V218.441C126.285 220.512 124.606 222.192 122.534 222.192C120.462 222.192 118.783 220.512 118.783 218.441V190.167Z" fill="#3D4648"/>
<path d="M237.588 118.709C239.256 118.735 240.589 120.108 240.566 121.776C240.542 123.444 239.171 124.775 237.503 124.749L227.412 124.591C225.743 124.565 224.41 123.192 224.434 121.524C224.458 119.856 225.829 118.525 227.497 118.551L237.588 118.709Z" fill="#18AAF1"/>
<path d="M60.9973 118.709C62.6653 118.735 63.9984 120.108 63.9747 121.776C63.9511 123.444 62.5798 124.775 60.9118 124.749L50.8205 124.591C49.1525 124.565 47.8194 123.192 47.843 121.524C47.8666 119.856 49.2379 118.525 50.9059 118.551L60.9973 118.709Z" fill="#18AAF1"/>
<path d="M234.703 137.506C236.371 137.532 237.704 138.905 237.68 140.573C237.657 142.241 236.285 143.572 234.617 143.546L224.526 143.389C222.858 143.363 221.525 141.989 221.549 140.321C221.572 138.653 222.944 137.322 224.612 137.348L234.703 137.506Z" fill="#18AAF1"/>
<path d="M44.8386 137.506C46.5066 137.532 47.8397 138.905 47.8161 140.573C47.7925 142.241 46.4212 143.572 44.7532 143.546L34.6618 143.389C32.9938 143.363 31.6608 141.989 31.6844 140.321C31.708 138.653 33.0793 137.322 34.7473 137.348L44.8386 137.506Z" fill="#18AAF1"/>
<path d="M252.016 146.601C253.684 146.627 255.017 148.001 254.993 149.669C254.97 151.337 253.598 152.668 251.93 152.642L241.839 152.484C240.171 152.458 238.838 151.085 238.861 149.417C238.885 147.749 240.256 146.418 241.924 146.444L252.016 146.601Z" fill="#18AAF1"/>
<path d="M252.824 118.649C254.492 118.675 255.825 120.048 255.801 121.717C255.777 123.385 254.406 124.716 252.738 124.69L246.456 124.591C244.788 124.565 243.455 123.192 243.478 121.524C243.502 119.856 244.873 118.525 246.541 118.551L252.824 118.649Z" fill="#18AAF1"/>
<path d="M41.6068 118.649C43.2748 118.675 44.6078 120.048 44.5842 121.717C44.5606 123.385 43.1893 124.716 41.5213 124.69L35.2389 124.591C33.5709 124.565 32.2379 123.192 32.2615 121.524C32.2851 119.856 33.6564 118.525 35.3244 118.551L41.6068 118.649Z" fill="#18AAF1"/>
<path d="M232.832 146.653C234.5 146.679 235.833 148.053 235.81 149.721C235.786 151.389 234.415 152.72 232.747 152.694L219.332 152.484C217.664 152.458 216.331 151.085 216.355 149.417C216.378 147.749 217.75 146.418 219.418 146.444L232.832 146.653Z" fill="#18AAF1"/>
<path d="M46.4305 148.472C48.0985 148.498 49.4315 149.872 49.4079 151.54C49.3843 153.208 48.013 154.539 46.345 154.513L32.9305 154.303C31.2625 154.277 29.9295 152.904 29.9531 151.236C29.9767 149.568 31.348 148.237 33.016 148.263L46.4305 148.472Z" fill="#18AAF1"/>
<path d="M249.938 137.446C251.606 137.472 252.939 138.846 252.916 140.514C252.892 142.182 251.521 143.513 249.853 143.487L243.57 143.389C241.902 143.363 240.569 141.989 240.593 140.321C240.616 138.653 241.988 137.322 243.656 137.348L249.938 137.446Z" fill="#18AAF1"/>
<path d="M61.2281 138.053C62.8961 138.079 64.2291 139.452 64.2055 141.12C64.1819 142.788 62.8106 144.119 61.1426 144.093L54.8602 143.995C53.1922 143.969 51.8591 142.596 51.8827 140.928C51.9063 139.26 53.2777 137.928 54.9457 137.955L61.2281 138.053Z" fill="#18AAF1"/>
<path d="M251.846 128.453C253.514 128.479 254.847 129.852 254.823 131.52C254.799 133.188 253.428 134.519 251.76 134.493L238.953 134.293C237.285 134.267 235.952 132.894 235.976 131.226C236 129.558 237.371 128.227 239.039 128.253L251.846 128.453Z" fill="#18AAF1"/>
<path d="M63.7126 127.846C65.3806 127.873 66.7137 129.246 66.6901 130.914C66.6665 132.582 65.2952 133.913 63.6272 133.887L50.8205 133.687C49.1525 133.661 47.8194 132.287 47.843 130.619C47.8666 128.951 49.2379 127.62 50.9059 127.646L63.7126 127.846Z" fill="#18AAF1"/>
<path d="M230.231 128.295C231.899 128.321 233.232 129.695 233.208 131.363C233.185 133.031 231.814 134.362 230.146 134.336L227.412 134.293C225.744 134.267 224.411 132.894 224.434 131.226C224.458 129.558 225.829 128.227 227.497 128.253L230.231 128.295Z" fill="#18AAF1"/>
<path d="M59.4109 147.699C61.0789 147.725 62.4119 149.098 62.3883 150.766C62.3647 152.435 60.9934 153.766 59.3254 153.74L56.5914 153.697C54.9234 153.671 53.5904 152.297 53.614 150.629C53.6376 148.961 55.0089 147.63 56.6769 147.656L59.4109 147.699Z" fill="#18AAF1"/>
<path d="M38.0584 128.295C39.7264 128.321 41.0594 129.695 41.0358 131.363C41.0122 133.031 39.6409 134.362 37.9729 134.336L35.2389 134.293C33.5709 134.267 32.2379 132.894 32.2615 131.226C32.2851 129.558 33.6564 128.227 35.3244 128.253L38.0584 128.295Z" fill="#18AAF1"/>
<path d="M153.409 190.167C153.409 188.096 155.088 186.416 157.16 186.416C159.231 186.416 160.911 188.096 160.911 190.167V218.441C160.911 220.512 159.231 222.192 157.16 222.192C155.088 222.192 153.409 220.512 153.409 218.441V190.167Z" fill="#3D4648"/>
<path d="M130.325 193.806C130.325 191.734 132.004 190.054 134.076 190.054C136.148 190.054 137.827 191.734 137.827 193.806V223.291C137.827 225.363 136.148 227.043 134.076 227.043C132.004 227.043 130.325 225.363 130.325 223.291V193.806Z" fill="#3D4648"/>
<path d="M164.951 193.806C164.951 191.734 166.63 190.054 168.702 190.054C170.773 190.054 172.453 191.734 172.453 193.806V223.291C172.453 225.363 170.773 227.043 168.702 227.043C166.63 227.043 164.951 225.363 164.951 223.291V193.806Z" fill="#3D4648"/>
<ellipse cx="145.906" cy="127.902" rx="24.8151" ry="24.5577" fill="#9D2323"/>
<ellipse cx="146.484" cy="127.902" rx="16.1587" ry="15.4622" fill="#152834"/>
<ellipse cx="141.578" cy="123.961" rx="6.0595" ry="6.06362" fill="#F5F5F5"/>
<defs>
<filter id="filter0_d_75_2" x="0.183954" y="0.76886" width="285.632" height="285.632" filterUnits="userSpaceOnUse" color-interpolation-filters="sRGB">
<feFlood flood-opacity="0" result="BackgroundImageFix"/>
<feColorMatrix in="SourceAlpha" type="matrix" values="0 0 0 0 0 0 0 0 0 0 0 0 0 0 0 0 0 0 127 0" result="hardAlpha"/>
<feOffset dy="2.58491"/>
<feGaussianBlur stdDeviation="1.29245"/>
<feComposite in2="hardAlpha" operator="out"/>
<feColorMatrix type="matrix" values="0 0 0 0 0 0 0 0 0 0 0 0 0 0 0 0 0 0 0.25 0"/>
<feBlend mode="normal" in2="BackgroundImageFix" result="effect1_dropShadow_75_2"/>
<feBlend mode="normal" in="SourceGraphic" in2="effect1_dropShadow_75_2" result="shape"/>
</filter>
</defs>
</svg>
